<mxfile host="app.diagrams.net" modified="2020-06-21T04:27:59.310Z" agent="5.0 (Macintosh; Intel Mac OS X 10_15_5) AppleWebKit/537.36 (KHTML, like Gecko) Chrome/83.0.4103.106 Safari/537.36" etag="JLme-1GtfaGhhMP5OC-n" version="13.3.0" type="github">
  <diagram id="C5RBs43oDa-KdzZeNtuy" name="Page-1">
    <mxGraphModel dx="901" dy="591" grid="1" gridSize="10" guides="1" tooltips="1" connect="1" arrows="1" fold="1" page="1" pageScale="1" pageWidth="1169" pageHeight="827" math="0" shadow="0">
      <root>
        <mxCell id="WIyWlLk6GJQsqaUBKTNV-0" />
        <mxCell id="WIyWlLk6GJQsqaUBKTNV-1" parent="WIyWlLk6GJQsqaUBKTNV-0" />
        <mxCell id="e46Xfpyiww3-5HaC5yhw-13" style="edgeStyle=orthogonalEdgeStyle;rounded=0;orthogonalLoop=1;jettySize=auto;html=1;entryX=0;entryY=0.5;entryDx=0;entryDy=0;" edge="1" parent="WIyWlLk6GJQsqaUBKTNV-1" source="WIyWlLk6GJQsqaUBKTNV-3" target="WIyWlLk6GJQsqaUBKTNV-11">
          <mxGeometry relative="1" as="geometry" />
        </mxCell>
        <mxCell id="WIyWlLk6GJQsqaUBKTNV-3" value="Criar uma conta" style="rounded=1;whiteSpace=wrap;html=1;fontSize=12;glass=0;strokeWidth=1;shadow=0;" parent="WIyWlLk6GJQsqaUBKTNV-1" vertex="1">
          <mxGeometry x="180" y="140.5" width="80" height="37" as="geometry" />
        </mxCell>
        <mxCell id="e46Xfpyiww3-5HaC5yhw-6" value="N" style="edgeStyle=orthogonalEdgeStyle;rounded=0;orthogonalLoop=1;jettySize=auto;html=1;" edge="1" parent="WIyWlLk6GJQsqaUBKTNV-1" source="WIyWlLk6GJQsqaUBKTNV-6" target="WIyWlLk6GJQsqaUBKTNV-7">
          <mxGeometry relative="1" as="geometry" />
        </mxCell>
        <mxCell id="e46Xfpyiww3-5HaC5yhw-85" style="edgeStyle=orthogonalEdgeStyle;rounded=0;orthogonalLoop=1;jettySize=auto;html=1;" edge="1" parent="WIyWlLk6GJQsqaUBKTNV-1" source="WIyWlLk6GJQsqaUBKTNV-6" target="e46Xfpyiww3-5HaC5yhw-79">
          <mxGeometry relative="1" as="geometry" />
        </mxCell>
        <mxCell id="WIyWlLk6GJQsqaUBKTNV-6" value="Recebido?" style="rhombus;whiteSpace=wrap;html=1;shadow=0;fontFamily=Helvetica;fontSize=12;align=center;strokeWidth=1;spacing=6;spacingTop=-4;" parent="WIyWlLk6GJQsqaUBKTNV-1" vertex="1">
          <mxGeometry x="423" y="136.5" width="77" height="45" as="geometry" />
        </mxCell>
        <mxCell id="e46Xfpyiww3-5HaC5yhw-12" style="edgeStyle=orthogonalEdgeStyle;rounded=0;orthogonalLoop=1;jettySize=auto;html=1;" edge="1" parent="WIyWlLk6GJQsqaUBKTNV-1" source="WIyWlLk6GJQsqaUBKTNV-7" target="e46Xfpyiww3-5HaC5yhw-11">
          <mxGeometry relative="1" as="geometry" />
        </mxCell>
        <mxCell id="WIyWlLk6GJQsqaUBKTNV-7" value="Reiniciar o processo" style="rounded=1;whiteSpace=wrap;html=1;fontSize=12;glass=0;strokeWidth=1;shadow=0;" parent="WIyWlLk6GJQsqaUBKTNV-1" vertex="1">
          <mxGeometry x="402" y="59" width="120" height="40" as="geometry" />
        </mxCell>
        <mxCell id="e46Xfpyiww3-5HaC5yhw-14" style="edgeStyle=orthogonalEdgeStyle;rounded=0;orthogonalLoop=1;jettySize=auto;html=1;entryX=0;entryY=0.5;entryDx=0;entryDy=0;" edge="1" parent="WIyWlLk6GJQsqaUBKTNV-1" source="WIyWlLk6GJQsqaUBKTNV-11" target="WIyWlLk6GJQsqaUBKTNV-6">
          <mxGeometry relative="1" as="geometry" />
        </mxCell>
        <mxCell id="WIyWlLk6GJQsqaUBKTNV-11" value="Receber email de confirmação" style="rounded=1;whiteSpace=wrap;html=1;fontSize=12;glass=0;strokeWidth=1;shadow=0;" parent="WIyWlLk6GJQsqaUBKTNV-1" vertex="1">
          <mxGeometry x="313" y="139" width="85" height="40" as="geometry" />
        </mxCell>
        <mxCell id="e46Xfpyiww3-5HaC5yhw-9" style="edgeStyle=orthogonalEdgeStyle;rounded=0;orthogonalLoop=1;jettySize=auto;html=1;entryX=0;entryY=0.5;entryDx=0;entryDy=0;" edge="1" parent="WIyWlLk6GJQsqaUBKTNV-1" target="e46Xfpyiww3-5HaC5yhw-8">
          <mxGeometry relative="1" as="geometry">
            <mxPoint x="707" y="159.0000000000001" as="sourcePoint" />
          </mxGeometry>
        </mxCell>
        <mxCell id="WIyWlLk6GJQsqaUBKTNV-12" value="Complementar o cadastro" style="rounded=1;whiteSpace=wrap;html=1;fontSize=12;glass=0;strokeWidth=1;shadow=0;" parent="WIyWlLk6GJQsqaUBKTNV-1" vertex="1">
          <mxGeometry x="623" y="139" width="90" height="40" as="geometry" />
        </mxCell>
        <mxCell id="e46Xfpyiww3-5HaC5yhw-1" style="edgeStyle=orthogonalEdgeStyle;rounded=0;orthogonalLoop=1;jettySize=auto;html=1;" edge="1" parent="WIyWlLk6GJQsqaUBKTNV-1" source="e46Xfpyiww3-5HaC5yhw-0">
          <mxGeometry relative="1" as="geometry">
            <mxPoint x="180" y="158" as="targetPoint" />
          </mxGeometry>
        </mxCell>
        <mxCell id="e46Xfpyiww3-5HaC5yhw-0" value="" style="ellipse;whiteSpace=wrap;html=1;aspect=fixed;fillColor=#d5e8d4;strokeColor=#82b366;" vertex="1" parent="WIyWlLk6GJQsqaUBKTNV-1">
          <mxGeometry x="120" y="148" width="20" height="20" as="geometry" />
        </mxCell>
        <mxCell id="e46Xfpyiww3-5HaC5yhw-3" style="edgeStyle=orthogonalEdgeStyle;rounded=0;orthogonalLoop=1;jettySize=auto;html=1;" edge="1" parent="WIyWlLk6GJQsqaUBKTNV-1" source="e46Xfpyiww3-5HaC5yhw-2" target="e46Xfpyiww3-5HaC5yhw-0">
          <mxGeometry relative="1" as="geometry" />
        </mxCell>
        <mxCell id="e46Xfpyiww3-5HaC5yhw-2" value="Profissional" style="shape=umlActor;verticalLabelPosition=bottom;labelBackgroundColor=#ffffff;verticalAlign=top;html=1;outlineConnect=0;" vertex="1" parent="WIyWlLk6GJQsqaUBKTNV-1">
          <mxGeometry x="40" y="128" width="30" height="60" as="geometry" />
        </mxCell>
        <mxCell id="e46Xfpyiww3-5HaC5yhw-23" style="edgeStyle=orthogonalEdgeStyle;rounded=0;orthogonalLoop=1;jettySize=auto;html=1;entryX=0;entryY=0.5;entryDx=0;entryDy=0;" edge="1" parent="WIyWlLk6GJQsqaUBKTNV-1" source="e46Xfpyiww3-5HaC5yhw-8">
          <mxGeometry relative="1" as="geometry">
            <mxPoint x="890" y="158.4999999999999" as="targetPoint" />
          </mxGeometry>
        </mxCell>
        <mxCell id="e46Xfpyiww3-5HaC5yhw-8" value="Registrar o serviço, preços e condições" style="rounded=1;whiteSpace=wrap;html=1;" vertex="1" parent="WIyWlLk6GJQsqaUBKTNV-1">
          <mxGeometry x="747" y="133.5" width="100" height="50" as="geometry" />
        </mxCell>
        <mxCell id="e46Xfpyiww3-5HaC5yhw-11" value="" style="ellipse;whiteSpace=wrap;html=1;aspect=fixed;fillColor=#f8cecc;strokeColor=#b85450;" vertex="1" parent="WIyWlLk6GJQsqaUBKTNV-1">
          <mxGeometry x="452" y="9" width="20" height="20" as="geometry" />
        </mxCell>
        <mxCell id="e46Xfpyiww3-5HaC5yhw-35" style="edgeStyle=orthogonalEdgeStyle;rounded=0;orthogonalLoop=1;jettySize=auto;html=1;entryX=0;entryY=0.5;entryDx=0;entryDy=0;" edge="1" parent="WIyWlLk6GJQsqaUBKTNV-1" source="e46Xfpyiww3-5HaC5yhw-17" target="e46Xfpyiww3-5HaC5yhw-34">
          <mxGeometry relative="1" as="geometry" />
        </mxCell>
        <mxCell id="e46Xfpyiww3-5HaC5yhw-17" value="Aguardar acionamento" style="html=1;whiteSpace=wrap;rounded=1;dropTarget=0;" vertex="1" parent="WIyWlLk6GJQsqaUBKTNV-1">
          <mxGeometry x="991" y="230" width="90" height="59" as="geometry" />
        </mxCell>
        <mxCell id="e46Xfpyiww3-5HaC5yhw-18" value="" style="shape=mxgraph.bpmn.timer_start;perimeter=ellipsePerimeter;html=1;verticalLabelPosition=bottom;labelBackgroundColor=#ffffff;verticalAlign=top;outlineConnect=0;" vertex="1" parent="e46Xfpyiww3-5HaC5yhw-17">
          <mxGeometry x="1" y="1" width="30" height="29" relative="1" as="geometry">
            <mxPoint x="-40" y="-15" as="offset" />
          </mxGeometry>
        </mxCell>
        <mxCell id="e46Xfpyiww3-5HaC5yhw-26" style="edgeStyle=orthogonalEdgeStyle;rounded=0;orthogonalLoop=1;jettySize=auto;html=1;" edge="1" parent="WIyWlLk6GJQsqaUBKTNV-1" source="e46Xfpyiww3-5HaC5yhw-20" target="e46Xfpyiww3-5HaC5yhw-17">
          <mxGeometry relative="1" as="geometry" />
        </mxCell>
        <mxCell id="e46Xfpyiww3-5HaC5yhw-20" value="Tornar perfil disponível&amp;nbsp;" style="rounded=1;whiteSpace=wrap;html=1;" vertex="1" parent="WIyWlLk6GJQsqaUBKTNV-1">
          <mxGeometry x="996" y="134" width="80" height="49" as="geometry" />
        </mxCell>
        <mxCell id="e46Xfpyiww3-5HaC5yhw-24" style="edgeStyle=orthogonalEdgeStyle;rounded=0;orthogonalLoop=1;jettySize=auto;html=1;entryX=0;entryY=0.5;entryDx=0;entryDy=0;" edge="1" parent="WIyWlLk6GJQsqaUBKTNV-1" source="e46Xfpyiww3-5HaC5yhw-22" target="e46Xfpyiww3-5HaC5yhw-20">
          <mxGeometry relative="1" as="geometry" />
        </mxCell>
        <mxCell id="e46Xfpyiww3-5HaC5yhw-32" value="S" style="edgeLabel;html=1;align=center;verticalAlign=middle;resizable=0;points=[];" vertex="1" connectable="0" parent="e46Xfpyiww3-5HaC5yhw-24">
          <mxGeometry x="-0.15" y="1" relative="1" as="geometry">
            <mxPoint as="offset" />
          </mxGeometry>
        </mxCell>
        <mxCell id="e46Xfpyiww3-5HaC5yhw-30" style="edgeStyle=orthogonalEdgeStyle;rounded=0;orthogonalLoop=1;jettySize=auto;html=1;exitX=0.5;exitY=0;exitDx=0;exitDy=0;" edge="1" parent="WIyWlLk6GJQsqaUBKTNV-1" source="e46Xfpyiww3-5HaC5yhw-22" target="e46Xfpyiww3-5HaC5yhw-8">
          <mxGeometry relative="1" as="geometry">
            <Array as="points">
              <mxPoint x="909" y="90" />
              <mxPoint x="793" y="90" />
            </Array>
          </mxGeometry>
        </mxCell>
        <mxCell id="e46Xfpyiww3-5HaC5yhw-31" value="N" style="edgeLabel;html=1;align=center;verticalAlign=middle;resizable=0;points=[];" vertex="1" connectable="0" parent="e46Xfpyiww3-5HaC5yhw-30">
          <mxGeometry x="-0.8347" y="1" relative="1" as="geometry">
            <mxPoint y="1" as="offset" />
          </mxGeometry>
        </mxCell>
        <mxCell id="e46Xfpyiww3-5HaC5yhw-22" value="" style="rhombus;whiteSpace=wrap;html=1;shadow=0;fontFamily=Helvetica;fontSize=12;align=center;strokeWidth=1;spacing=6;spacingTop=-4;" vertex="1" parent="WIyWlLk6GJQsqaUBKTNV-1">
          <mxGeometry x="886" y="136.5" width="47" height="44" as="geometry" />
        </mxCell>
        <mxCell id="e46Xfpyiww3-5HaC5yhw-34" value="" style="ellipse;whiteSpace=wrap;html=1;aspect=fixed;fillColor=#f8cecc;strokeColor=#b85450;" vertex="1" parent="WIyWlLk6GJQsqaUBKTNV-1">
          <mxGeometry x="1113" y="250" width="20" height="19" as="geometry" />
        </mxCell>
        <mxCell id="e46Xfpyiww3-5HaC5yhw-36" value="" style="ellipse;whiteSpace=wrap;html=1;aspect=fixed;fillColor=#f8cecc;strokeColor=#b85450;" vertex="1" parent="WIyWlLk6GJQsqaUBKTNV-1">
          <mxGeometry x="1116" y="253" width="14" height="13" as="geometry" />
        </mxCell>
        <mxCell id="e46Xfpyiww3-5HaC5yhw-38" style="edgeStyle=orthogonalEdgeStyle;rounded=0;orthogonalLoop=1;jettySize=auto;html=1;entryX=0;entryY=0.5;entryDx=0;entryDy=0;" edge="1" parent="WIyWlLk6GJQsqaUBKTNV-1" source="e46Xfpyiww3-5HaC5yhw-39" target="e46Xfpyiww3-5HaC5yhw-46">
          <mxGeometry relative="1" as="geometry" />
        </mxCell>
        <mxCell id="e46Xfpyiww3-5HaC5yhw-39" value="Criar uma conta" style="rounded=1;whiteSpace=wrap;html=1;fontSize=12;glass=0;strokeWidth=1;shadow=0;" vertex="1" parent="WIyWlLk6GJQsqaUBKTNV-1">
          <mxGeometry x="220" y="490" width="80" height="40" as="geometry" />
        </mxCell>
        <mxCell id="e46Xfpyiww3-5HaC5yhw-40" value="N" style="edgeStyle=orthogonalEdgeStyle;rounded=0;orthogonalLoop=1;jettySize=auto;html=1;" edge="1" parent="WIyWlLk6GJQsqaUBKTNV-1" source="e46Xfpyiww3-5HaC5yhw-42" target="e46Xfpyiww3-5HaC5yhw-44">
          <mxGeometry relative="1" as="geometry" />
        </mxCell>
        <mxCell id="e46Xfpyiww3-5HaC5yhw-41" style="edgeStyle=orthogonalEdgeStyle;rounded=0;orthogonalLoop=1;jettySize=auto;html=1;" edge="1" parent="WIyWlLk6GJQsqaUBKTNV-1" source="e46Xfpyiww3-5HaC5yhw-42" target="e46Xfpyiww3-5HaC5yhw-48">
          <mxGeometry relative="1" as="geometry" />
        </mxCell>
        <mxCell id="e46Xfpyiww3-5HaC5yhw-42" value="Recebido?" style="rhombus;whiteSpace=wrap;html=1;shadow=0;fontFamily=Helvetica;fontSize=12;align=center;strokeWidth=1;spacing=6;spacingTop=-4;" vertex="1" parent="WIyWlLk6GJQsqaUBKTNV-1">
          <mxGeometry x="460" y="487.5" width="90" height="45" as="geometry" />
        </mxCell>
        <mxCell id="e46Xfpyiww3-5HaC5yhw-43" style="edgeStyle=orthogonalEdgeStyle;rounded=0;orthogonalLoop=1;jettySize=auto;html=1;" edge="1" parent="WIyWlLk6GJQsqaUBKTNV-1" source="e46Xfpyiww3-5HaC5yhw-44" target="e46Xfpyiww3-5HaC5yhw-55">
          <mxGeometry relative="1" as="geometry" />
        </mxCell>
        <mxCell id="e46Xfpyiww3-5HaC5yhw-44" value="Reiniciar o processo" style="rounded=1;whiteSpace=wrap;html=1;fontSize=12;glass=0;strokeWidth=1;shadow=0;" vertex="1" parent="WIyWlLk6GJQsqaUBKTNV-1">
          <mxGeometry x="445" y="410" width="120" height="40" as="geometry" />
        </mxCell>
        <mxCell id="e46Xfpyiww3-5HaC5yhw-45" style="edgeStyle=orthogonalEdgeStyle;rounded=0;orthogonalLoop=1;jettySize=auto;html=1;entryX=0;entryY=0.5;entryDx=0;entryDy=0;" edge="1" parent="WIyWlLk6GJQsqaUBKTNV-1" source="e46Xfpyiww3-5HaC5yhw-46" target="e46Xfpyiww3-5HaC5yhw-42">
          <mxGeometry relative="1" as="geometry" />
        </mxCell>
        <mxCell id="e46Xfpyiww3-5HaC5yhw-46" value="Receber email de confirmação" style="rounded=1;whiteSpace=wrap;html=1;fontSize=12;glass=0;strokeWidth=1;shadow=0;" vertex="1" parent="WIyWlLk6GJQsqaUBKTNV-1">
          <mxGeometry x="350" y="490" width="85" height="40" as="geometry" />
        </mxCell>
        <mxCell id="e46Xfpyiww3-5HaC5yhw-47" style="edgeStyle=orthogonalEdgeStyle;rounded=0;orthogonalLoop=1;jettySize=auto;html=1;entryX=0;entryY=0.5;entryDx=0;entryDy=0;" edge="1" parent="WIyWlLk6GJQsqaUBKTNV-1" source="e46Xfpyiww3-5HaC5yhw-48" target="e46Xfpyiww3-5HaC5yhw-54">
          <mxGeometry relative="1" as="geometry" />
        </mxCell>
        <mxCell id="e46Xfpyiww3-5HaC5yhw-48" value="Complementar cadastro" style="rounded=1;whiteSpace=wrap;html=1;fontSize=12;glass=0;strokeWidth=1;shadow=0;" vertex="1" parent="WIyWlLk6GJQsqaUBKTNV-1">
          <mxGeometry x="580" y="490" width="90" height="40" as="geometry" />
        </mxCell>
        <mxCell id="e46Xfpyiww3-5HaC5yhw-49" style="edgeStyle=orthogonalEdgeStyle;rounded=0;orthogonalLoop=1;jettySize=auto;html=1;" edge="1" parent="WIyWlLk6GJQsqaUBKTNV-1" source="e46Xfpyiww3-5HaC5yhw-50">
          <mxGeometry relative="1" as="geometry">
            <mxPoint x="220" y="509.9999999999999" as="targetPoint" />
          </mxGeometry>
        </mxCell>
        <mxCell id="e46Xfpyiww3-5HaC5yhw-50" value="" style="ellipse;whiteSpace=wrap;html=1;aspect=fixed;fillColor=#d5e8d4;strokeColor=#82b366;" vertex="1" parent="WIyWlLk6GJQsqaUBKTNV-1">
          <mxGeometry x="150" y="500" width="20" height="20" as="geometry" />
        </mxCell>
        <mxCell id="e46Xfpyiww3-5HaC5yhw-51" style="edgeStyle=orthogonalEdgeStyle;rounded=0;orthogonalLoop=1;jettySize=auto;html=1;" edge="1" parent="WIyWlLk6GJQsqaUBKTNV-1" source="e46Xfpyiww3-5HaC5yhw-52" target="e46Xfpyiww3-5HaC5yhw-50">
          <mxGeometry relative="1" as="geometry" />
        </mxCell>
        <mxCell id="e46Xfpyiww3-5HaC5yhw-52" value="Cliente" style="shape=umlActor;verticalLabelPosition=bottom;labelBackgroundColor=#ffffff;verticalAlign=top;html=1;outlineConnect=0;" vertex="1" parent="WIyWlLk6GJQsqaUBKTNV-1">
          <mxGeometry x="40" y="480" width="30" height="60" as="geometry" />
        </mxCell>
        <mxCell id="e46Xfpyiww3-5HaC5yhw-53" style="edgeStyle=orthogonalEdgeStyle;rounded=0;orthogonalLoop=1;jettySize=auto;html=1;entryX=0;entryY=0.5;entryDx=0;entryDy=0;" edge="1" parent="WIyWlLk6GJQsqaUBKTNV-1" source="e46Xfpyiww3-5HaC5yhw-54" target="e46Xfpyiww3-5HaC5yhw-65">
          <mxGeometry relative="1" as="geometry" />
        </mxCell>
        <mxCell id="e46Xfpyiww3-5HaC5yhw-54" value="Buscar por serviço ou Profissional" style="rounded=1;whiteSpace=wrap;html=1;" vertex="1" parent="WIyWlLk6GJQsqaUBKTNV-1">
          <mxGeometry x="719" y="487.5" width="100" height="45" as="geometry" />
        </mxCell>
        <mxCell id="e46Xfpyiww3-5HaC5yhw-55" value="" style="ellipse;whiteSpace=wrap;html=1;aspect=fixed;fillColor=#f8cecc;strokeColor=#b85450;" vertex="1" parent="WIyWlLk6GJQsqaUBKTNV-1">
          <mxGeometry x="495" y="360" width="20" height="20" as="geometry" />
        </mxCell>
        <mxCell id="e46Xfpyiww3-5HaC5yhw-76" style="edgeStyle=orthogonalEdgeStyle;rounded=0;orthogonalLoop=1;jettySize=auto;html=1;entryX=0;entryY=0.5;entryDx=0;entryDy=0;" edge="1" parent="WIyWlLk6GJQsqaUBKTNV-1" source="e46Xfpyiww3-5HaC5yhw-57" target="e46Xfpyiww3-5HaC5yhw-72">
          <mxGeometry relative="1" as="geometry" />
        </mxCell>
        <mxCell id="e46Xfpyiww3-5HaC5yhw-57" value="Aguardar acionamento" style="html=1;whiteSpace=wrap;rounded=1;dropTarget=0;" vertex="1" parent="WIyWlLk6GJQsqaUBKTNV-1">
          <mxGeometry x="967" y="583" width="90" height="52" as="geometry" />
        </mxCell>
        <mxCell id="e46Xfpyiww3-5HaC5yhw-58" value="" style="shape=mxgraph.bpmn.timer_start;perimeter=ellipsePerimeter;html=1;verticalLabelPosition=bottom;labelBackgroundColor=#ffffff;verticalAlign=top;outlineConnect=0;" vertex="1" parent="e46Xfpyiww3-5HaC5yhw-57">
          <mxGeometry x="1" y="1" width="30" height="22" relative="1" as="geometry">
            <mxPoint x="-40" y="-15" as="offset" />
          </mxGeometry>
        </mxCell>
        <mxCell id="e46Xfpyiww3-5HaC5yhw-59" style="edgeStyle=orthogonalEdgeStyle;rounded=0;orthogonalLoop=1;jettySize=auto;html=1;" edge="1" parent="WIyWlLk6GJQsqaUBKTNV-1" source="e46Xfpyiww3-5HaC5yhw-60" target="e46Xfpyiww3-5HaC5yhw-57">
          <mxGeometry relative="1" as="geometry" />
        </mxCell>
        <mxCell id="e46Xfpyiww3-5HaC5yhw-60" value="Tornar perfil disponível&amp;nbsp;" style="rounded=1;whiteSpace=wrap;html=1;" vertex="1" parent="WIyWlLk6GJQsqaUBKTNV-1">
          <mxGeometry x="972" y="489" width="80" height="42" as="geometry" />
        </mxCell>
        <mxCell id="e46Xfpyiww3-5HaC5yhw-61" style="edgeStyle=orthogonalEdgeStyle;rounded=0;orthogonalLoop=1;jettySize=auto;html=1;entryX=0;entryY=0.5;entryDx=0;entryDy=0;" edge="1" parent="WIyWlLk6GJQsqaUBKTNV-1" source="e46Xfpyiww3-5HaC5yhw-65" target="e46Xfpyiww3-5HaC5yhw-60">
          <mxGeometry relative="1" as="geometry" />
        </mxCell>
        <mxCell id="e46Xfpyiww3-5HaC5yhw-62" value="S" style="edgeLabel;html=1;align=center;verticalAlign=middle;resizable=0;points=[];" vertex="1" connectable="0" parent="e46Xfpyiww3-5HaC5yhw-61">
          <mxGeometry x="-0.15" y="1" relative="1" as="geometry">
            <mxPoint as="offset" />
          </mxGeometry>
        </mxCell>
        <mxCell id="e46Xfpyiww3-5HaC5yhw-63" style="edgeStyle=orthogonalEdgeStyle;rounded=0;orthogonalLoop=1;jettySize=auto;html=1;exitX=0.5;exitY=0;exitDx=0;exitDy=0;" edge="1" parent="WIyWlLk6GJQsqaUBKTNV-1" source="e46Xfpyiww3-5HaC5yhw-65" target="e46Xfpyiww3-5HaC5yhw-54">
          <mxGeometry relative="1" as="geometry">
            <Array as="points">
              <mxPoint x="897" y="444" />
              <mxPoint x="769" y="444" />
            </Array>
          </mxGeometry>
        </mxCell>
        <mxCell id="e46Xfpyiww3-5HaC5yhw-64" value="N" style="edgeLabel;html=1;align=center;verticalAlign=middle;resizable=0;points=[];" vertex="1" connectable="0" parent="e46Xfpyiww3-5HaC5yhw-63">
          <mxGeometry x="-0.8347" y="1" relative="1" as="geometry">
            <mxPoint y="1" as="offset" />
          </mxGeometry>
        </mxCell>
        <mxCell id="e46Xfpyiww3-5HaC5yhw-65" value="" style="rhombus;whiteSpace=wrap;html=1;shadow=0;fontFamily=Helvetica;fontSize=12;align=center;strokeWidth=1;spacing=6;spacingTop=-4;" vertex="1" parent="WIyWlLk6GJQsqaUBKTNV-1">
          <mxGeometry x="862" y="491.5" width="70" height="37" as="geometry" />
        </mxCell>
        <mxCell id="e46Xfpyiww3-5HaC5yhw-72" value="" style="ellipse;whiteSpace=wrap;html=1;aspect=fixed;fillColor=#f8cecc;strokeColor=#b85450;" vertex="1" parent="WIyWlLk6GJQsqaUBKTNV-1">
          <mxGeometry x="1090" y="600.5" width="20" height="20" as="geometry" />
        </mxCell>
        <mxCell id="e46Xfpyiww3-5HaC5yhw-73" value="" style="ellipse;whiteSpace=wrap;html=1;aspect=fixed;fillColor=#f8cecc;strokeColor=#b85450;" vertex="1" parent="WIyWlLk6GJQsqaUBKTNV-1">
          <mxGeometry x="1093" y="603.5" width="14.5" height="14.5" as="geometry" />
        </mxCell>
        <mxCell id="e46Xfpyiww3-5HaC5yhw-86" style="edgeStyle=orthogonalEdgeStyle;rounded=0;orthogonalLoop=1;jettySize=auto;html=1;" edge="1" parent="WIyWlLk6GJQsqaUBKTNV-1" source="e46Xfpyiww3-5HaC5yhw-79" target="WIyWlLk6GJQsqaUBKTNV-12">
          <mxGeometry relative="1" as="geometry" />
        </mxCell>
        <mxCell id="e46Xfpyiww3-5HaC5yhw-79" value="Realizar login" style="rounded=1;whiteSpace=wrap;html=1;fontSize=12;glass=0;strokeWidth=1;shadow=0;" vertex="1" parent="WIyWlLk6GJQsqaUBKTNV-1">
          <mxGeometry x="530" y="139.5" width="67" height="40" as="geometry" />
        </mxCell>
      </root>
    </mxGraphModel>
  </diagram>
</mxfile>
